<svg width="160" height="40" viewBox="0 0 160 40" fill="none" xmlns="http://www.w3.org/2000/svg">
<path d="M58.856 15.3058H53.288V12.7618H67.568V15.3058H61.976V29.8498H58.856V15.3058ZM74.1209 17.4418C74.5849 17.4418 74.9849 17.5058 75.3209 17.6338L75.2969 20.3698C74.7849 20.1618 74.2569 20.0578 73.7129 20.0578C72.6889 20.0578 71.9049 20.3538 71.3609 20.9458C70.8329 21.5378 70.5689 22.3218 70.5689 23.2978V29.8498H67.5929V21.1618C67.5929 19.8818 67.5289 18.7378 67.4009 17.7298H70.2089L70.4489 19.8658C70.7529 19.0818 71.2329 18.4818 71.8889 18.0658C72.5449 17.6498 73.2889 17.4418 74.1209 17.4418ZM88.349 17.7298V29.8498H85.397V27.9058C85.029 28.5778 84.501 29.1058 83.813 29.4898C83.125 29.8578 82.341 30.0418 81.461 30.0418C80.405 30.0418 79.469 29.7858 78.653 29.2738C77.837 28.7618 77.205 28.0338 76.757 27.0898C76.309 26.1458 76.085 25.0498 76.085 23.8018C76.085 22.5538 76.309 21.4498 76.757 20.4898C77.221 19.5138 77.861 18.7618 78.677 18.2338C79.493 17.6898 80.421 17.4178 81.461 17.4178C82.341 17.4178 83.125 17.6098 83.813 17.9938C84.501 18.3618 85.029 18.8818 85.397 19.5538V17.7298H88.349ZM82.277 27.6898C83.269 27.6898 84.037 27.3458 84.581 26.6578C85.125 25.9698 85.397 25.0018 85.397 23.7538C85.397 22.4738 85.125 21.4898 84.581 20.8018C84.037 20.1138 83.261 19.7698 82.253 19.7698C81.261 19.7698 80.485 20.1298 79.925 20.8498C79.381 21.5538 79.109 22.5378 79.109 23.8018C79.109 25.0498 79.381 26.0098 79.925 26.6818C80.485 27.3538 81.269 27.6898 82.277 27.6898ZM97.3524 14.5618C96.0564 14.5618 95.4084 15.2738 95.4084 16.6978V17.7298H98.1204V19.9858H95.4084V29.8498H92.4084V19.9858H90.1044V17.7298H92.4084V16.5538C92.4084 15.1138 92.7684 14.0098 93.4884 13.2418C94.2244 12.4578 95.2724 12.0658 96.6324 12.0658C97.3844 12.0658 98.0164 12.1618 98.5284 12.3538V14.7298C98.0804 14.6178 97.6884 14.5618 97.3524 14.5618ZM111.904 17.7298V29.8498H108.952V27.9058C108.584 28.5778 108.056 29.1058 107.368 29.4898C106.68 29.8578 105.896 30.0418 105.016 30.0418C103.96 30.0418 103.024 29.7858 102.208 29.2738C101.392 28.7618 100.76 28.0338 100.312 27.0898C99.8637 26.1458 99.6397 25.0498 99.6397 23.8018C99.6397 22.5538 99.8637 21.4498 100.312 20.4898C100.776 19.5138 101.416 18.7618 102.232 18.2338C103.048 17.6898 103.976 17.4178 105.016 17.4178C105.896 17.4178 106.68 17.6098 107.368 17.9938C108.056 18.3618 108.584 18.8818 108.952 19.5538V17.7298H111.904ZM105.832 27.6898C106.824 27.6898 107.592 27.3458 108.136 26.6578C108.68 25.9698 108.952 25.0018 108.952 23.7538C108.952 22.4738 108.68 21.4898 108.136 20.8018C107.592 20.1138 106.816 19.7698 105.808 19.7698C104.816 19.7698 104.04 20.1298 103.48 20.8498C102.936 21.5538 102.664 22.5378 102.664 23.8018C102.664 25.0498 102.936 26.0098 103.48 26.6818C104.04 27.3538 104.824 27.6898 105.832 27.6898ZM115.171 12.1858H118.147V29.8498H115.171V12.1858ZM133.141 17.7298V29.4658C133.141 31.3538 132.621 32.7858 131.581 33.7618C130.541 34.7378 129.013 35.2258 126.997 35.2258C125.125 35.2258 123.477 34.8338 122.053 34.0498L122.533 31.7698C124.005 32.5378 125.469 32.9218 126.925 32.9218C129.085 32.9218 130.165 31.8498 130.165 29.7058V27.3058C129.797 27.9618 129.261 28.4978 128.557 28.9138C127.853 29.3138 127.061 29.5138 126.181 29.5138C125.125 29.5138 124.181 29.2658 123.349 28.7698C122.533 28.2578 121.893 27.5458 121.429 26.6338C120.981 25.7058 120.757 24.6498 120.757 23.4658C120.757 22.2818 120.981 21.2338 121.429 20.3218C121.893 19.3938 122.533 18.6818 123.349 18.1858C124.181 17.6738 125.125 17.4178 126.181 17.4178C127.077 17.4178 127.869 17.6098 128.557 17.9938C129.261 18.3618 129.797 18.8818 130.165 19.5538V17.7298H133.141ZM126.973 27.1618C127.965 27.1618 128.741 26.8338 129.301 26.1778C129.877 25.5218 130.165 24.6178 130.165 23.4658C130.165 22.3138 129.885 21.4098 129.325 20.7538C128.765 20.0978 127.981 19.7698 126.973 19.7698C125.981 19.7698 125.197 20.0978 124.621 20.7538C124.061 21.4098 123.781 22.3138 123.781 23.4658C123.781 24.6178 124.061 25.5218 124.621 26.1778C125.197 26.8338 125.981 27.1618 126.973 27.1618ZM147.974 17.7298V29.8498H145.022V27.9058C144.654 28.5778 144.126 29.1058 143.438 29.4898C142.75 29.8578 141.966 30.0418 141.086 30.0418C140.03 30.0418 139.094 29.7858 138.278 29.2738C137.462 28.7618 136.83 28.0338 136.382 27.0898C135.934 26.1458 135.71 25.0498 135.71 23.8018C135.71 22.5538 135.934 21.4498 136.382 20.4898C136.846 19.5138 137.486 18.7618 138.302 18.2338C139.118 17.6898 140.046 17.4178 141.086 17.4178C141.966 17.4178 142.75 17.6098 143.438 17.9938C144.126 18.3618 144.654 18.8818 145.022 19.5538V17.7298H147.974ZM141.902 27.6898C142.894 27.6898 143.662 27.3458 144.206 26.6578C144.75 25.9698 145.022 25.0018 145.022 23.7538C145.022 22.4738 144.75 21.4898 144.206 20.8018C143.662 20.1138 142.886 19.7698 141.878 19.7698C140.886 19.7698 140.11 20.1298 139.55 20.8498C139.006 21.5538 138.734 22.5378 138.734 23.8018C138.734 25.0498 139.006 26.0098 139.55 26.6818C140.11 27.3538 140.894 27.6898 141.902 27.6898ZM157.769 17.4418C158.233 17.4418 158.633 17.5058 158.969 17.6338L158.945 20.3698C158.433 20.1618 157.905 20.0578 157.361 20.0578C156.337 20.0578 155.553 20.3538 155.009 20.9458C154.481 21.5378 154.217 22.3218 154.217 23.2978V29.8498H151.241V21.1618C151.241 19.8818 151.177 18.7378 151.049 17.7298H153.857L154.097 19.8658C154.401 19.0818 154.881 18.4818 155.537 18.0658C156.193 17.6498 156.937 17.4418 157.769 17.4418Z" fill="#233348"/>
<ellipse cx="20.5" cy="19.9868" rx="20.5" ry="19.9868" fill="#458FF6"/>
<path d="M19.344 15.1188H13.312V12.3628H28.782V15.1188H22.724V30.8748H19.344V15.1188Z" fill="white"/>
</svg>
